<?xml version="1.0"?>
<svg version="1.1" width="150px" height="50px" viewBox="0 80 150 50" xmlns="http://www.w3.org/2000/svg" ><path fill="#" d="M15.833984375,110.3359375q0-0.615234375,0.0615234375-1.4697265625t0.2802734375-1.4150390625q0.08203125-0.19140625,0.3486328125-0.3759765625t0.560546875-0.2255859375t0.51953125,0.068359375t0.2255859375,0.478515625q0,0.642578125-0.02734375,1.626953125l0,0.423828125q0,0.751953125,0.068359375,1.435546875q0.095703125,0.90234375,0.41015625,1.517578125q0.2734375,0.560546875,0.861328125,0.560546875l0.109375,0q0.806640625-0.0546875,1.189453125-0.669921875t0.51953125-1.462890625q0.123046875-0.779296875,0.123046875-1.640625l0-0.1640625q-0.013671875-0.95703125-0.013671875-1.681640625q0-2.884765625-0.19140625-5.783203125t-0.19140625-5.810546875q0-0.478515625-0.041015625-1.0390625q-0.013671875-0.205078125-0.013671875-0.41015625q0-0.328125,0.041015625-0.62890625q0.068359375-0.478515625,0.3486328125-0.7998046875t0.9501953125-0.3212890625q0.369140625,0,0.6767578125,0.0888671875t0.5537109375,0.3623046875q0.314453125,3.5546875,0.51953125,7.2255859375t0.205078125,7.2529296875q0,1.23046875-0.205078125,2.474609375t-0.751953125,2.2421875t-1.517578125,1.626953125t-2.474609375,0.62890625q-0.90234375,0-1.50390625-0.3212890625t-0.9638671875-0.8818359375t-0.51953125-1.3056640625t-0.1572265625-1.6064453125z M26.72595703125,109.4609375q0-0.95703125,0.2119140625-2.255859375t0.7177734375-2.4609375t1.3330078125-1.9755859375t2.0849609375-0.8134765625q1.17578125,0,1.763671875,0.6767578125t0.587890625,1.8251953125q0,0.751953125-0.2802734375,1.6474609375t-0.7998046875,1.6953125t-1.23046875,1.3330078125t-1.5859375,0.533203125l-0.35546875-0.02734375q0,0.369140625,0.109375,0.9912109375t0.3212890625,1.2373046875t0.546875,1.080078125t0.8134765625,0.46484375q0.697265625,0,1.33984375-0.560546875t1.216796875-1.244140625t1.06640625-1.244140625t0.90234375-0.560546875q0.21875,0,0.451171875,0.068359375t0.259765625,0.3828125q0,0.19140625-0.1025390625,0.314453125t-0.1845703125,0.2734375q-0.423828125,0.724609375-0.9228515625,1.380859375t-1.1279296875,1.189453125t-1.3740234375,0.8408203125t-1.6474609375,0.3076171875q-1.17578125,0-1.955078125-0.4169921875t-1.2578125-1.12109375t-0.6904296875-1.626953125t-0.2119140625-1.9345703125z M29.17322265625,108.421875l0.3828125,0.341796875q0.2734375,0.24609375,0.546875,0.109375t0.4921875-0.4990234375t0.4033203125-0.8955078125t0.328125-1.09375t0.2119140625-1.09375t0.068359375-0.888671875l0-0.46484375t-0.041015625-0.4921875t-0.1435546875-0.3896484375t-0.3212890625-0.1982421875q-0.068359375-0.013671875-0.123046875-0.013671875q-0.46484375,0-0.79296875,0.587890625q-0.35546875,0.65625-0.57421875,1.5927734375t-0.314453125,1.9208984375t-0.123046875,1.4765625z M38.1511328125,103.185546875q0-0.13671875,0.2119140625-0.232421875t0.505859375-0.13671875t0.560546875-0.068359375t0.4033203125-0.02734375q0.0546875-0.369140625,0.1572265625-0.998046875t0.2529296875-1.3466796875t0.3759765625-1.4423828125t0.546875-1.3125t0.7587890625-0.9638671875t1.025390625-0.3759765625l-0.02734375,0q0.19140625-0.02734375,0.3759765625-0.041015625t0.3759765625-0.013671875q0.451171875,0,0.9775390625,0.177734375t0.9775390625,0.4990234375t0.7587890625,0.7724609375t0.3076171875,0.95703125q0,0.396484375-0.1982421875,0.8544921875t-0.6904296875,0.4580078125q-0.1640625,0-0.3349609375-0.08203125t-0.3212890625-0.177734375q0.0546875-0.314453125,0.0546875-0.62890625q0-0.1640625-0.013671875-0.314453125q-0.041015625-0.478515625-0.205078125-0.8408203125t-0.4716796875-0.57421875t-0.7314453125-0.1572265625q-0.560546875,0.08203125-0.8408203125,0.68359375t-0.3896484375,1.4287109375t-0.13671875,1.681640625t-0.109375,1.3876953125q0.642578125,0.0546875,1.0869140625,0.0546875l1.1142578125,0q0.109375,0,0.3759765625,0.013671875t0.51953125,0.0546875t0.451171875,0.1435546875t0.1982421875,0.2666015625q0,0.13671875-0.109375,0.2392578125t-0.2666015625,0.1435546875t-0.328125,0.0546875t-0.2802734375,0.013671875q-0.478515625,0-0.8134765625-0.041015625t-0.642578125-0.0751953125t-0.642578125-0.0341796875t-0.7861328125,0.095703125q-0.13671875,1.517578125-0.21875,3.0078125t-0.08203125,3.0078125q0,2.37890625,0.150390625,4.662109375t0.546875,4.634765625q0.0546875,0.21875,0.095703125,0.4990234375t0.041015625,0.5400390625q0,0.24609375-0.150390625,0.4033203125t-0.3759765625,0.2255859375t-0.46484375,0.095703125t-0.4306640625,0.02734375q-0.779296875,0-1.09375-0.2392578125t-0.451171875-0.9638671875q-0.341796875-1.927734375-0.4375-3.8896484375t-0.095703125-3.9580078125q0-1.955078125,0.1435546875-3.9033203125t0.3623046875-3.8759765625q-0.109375,0-0.3759765625,0.013671875t-0.533203125,0t-0.46484375-0.095703125t-0.1982421875-0.287109375z M48.23646484375,103.185546875q0-0.13671875,0.2119140625-0.232421875t0.505859375-0.13671875t0.560546875-0.068359375t0.4033203125-0.02734375q0.0546875-0.369140625,0.1572265625-0.998046875t0.2529296875-1.3466796875t0.3759765625-1.4423828125t0.546875-1.3125t0.7587890625-0.9638671875t1.025390625-0.3759765625l-0.02734375,0q0.19140625-0.02734375,0.3759765625-0.041015625t0.3759765625-0.013671875q0.451171875,0,0.9775390625,0.177734375t0.9775390625,0.4990234375t0.7587890625,0.7724609375t0.3076171875,0.95703125q0,0.396484375-0.1982421875,0.8544921875t-0.6904296875,0.4580078125q-0.1640625,0-0.3349609375-0.08203125t-0.3212890625-0.177734375q0.0546875-0.314453125,0.0546875-0.62890625q0-0.1640625-0.013671875-0.314453125q-0.041015625-0.478515625-0.205078125-0.8408203125t-0.4716796875-0.57421875t-0.7314453125-0.1572265625q-0.560546875,0.08203125-0.8408203125,0.68359375t-0.3896484375,1.4287109375t-0.13671875,1.681640625t-0.109375,1.3876953125q0.642578125,0.0546875,1.0869140625,0.0546875l1.1142578125,0q0.109375,0,0.3759765625,0.013671875t0.51953125,0.0546875t0.451171875,0.1435546875t0.1982421875,0.2666015625q0,0.13671875-0.109375,0.2392578125t-0.2666015625,0.1435546875t-0.328125,0.0546875t-0.2802734375,0.013671875q-0.478515625,0-0.8134765625-0.041015625t-0.642578125-0.0751953125t-0.642578125-0.0341796875t-0.7861328125,0.095703125q-0.13671875,1.517578125-0.21875,3.0078125t-0.08203125,3.0078125q0,2.37890625,0.150390625,4.662109375t0.546875,4.634765625q0.0546875,0.21875,0.095703125,0.4990234375t0.041015625,0.5400390625q0,0.24609375-0.150390625,0.4033203125t-0.3759765625,0.2255859375t-0.46484375,0.095703125t-0.4306640625,0.02734375q-0.779296875,0-1.09375-0.2392578125t-0.451171875-0.9638671875q-0.341796875-1.927734375-0.4375-3.8896484375t-0.095703125-3.9580078125q0-1.955078125,0.1435546875-3.9033203125t0.3623046875-3.8759765625q-0.109375,0-0.3759765625,0.013671875t-0.533203125,0t-0.46484375-0.095703125t-0.1982421875-0.287109375z M58.321796875,105.072265625q0-0.560546875,0.1982421875-0.943359375t0.8408203125-0.3828125q0.24609375,0,0.615234375,0.0751953125t0.423828125,0.3759765625q0.13671875,0.806640625,0.150390625,1.75t0.095703125,1.77734375q0.314453125-0.615234375,0.806640625-1.326171875t1.12109375-1.3125t1.3671875-0.998046875t1.50390625-0.396484375q0.0546875,0,0.205078125,0.041015625t0.2802734375,0.1162109375t0.1572265625,0.1708984375t-0.150390625,0.177734375q-0.0546875,0.1640625-0.232421875,0.1982421875t-0.314453125,0.0341796875q-0.08203125,0-0.259765625-0.068359375q-1.01171875,0.533203125-1.72265625,1.44921875t-1.162109375,2.0302734375t-0.65625,2.3515625t-0.205078125,2.4130859375q0,0.587890625-0.2666015625,0.7109375t-0.8544921875,0.123046875q-0.314453125,0-0.6630859375-0.068359375t-0.4853515625-0.4375q-0.24609375-0.779296875-0.4033203125-1.791015625t-0.2392578125-2.0849609375t-0.1162109375-2.1123046875t-0.0341796875-1.873046875z M68.03798828125,109.4609375q0-0.95703125,0.2119140625-2.255859375t0.7177734375-2.4609375t1.3330078125-1.9755859375t2.0849609375-0.8134765625q1.17578125,0,1.763671875,0.6767578125t0.587890625,1.8251953125q0,0.751953125-0.2802734375,1.6474609375t-0.7998046875,1.6953125t-1.23046875,1.3330078125t-1.5859375,0.533203125l-0.35546875-0.02734375q0,0.369140625,0.109375,0.9912109375t0.3212890625,1.2373046875t0.546875,1.080078125t0.8134765625,0.46484375q0.697265625,0,1.33984375-0.560546875t1.216796875-1.244140625t1.06640625-1.244140625t0.90234375-0.560546875q0.21875,0,0.451171875,0.068359375t0.259765625,0.3828125q0,0.19140625-0.1025390625,0.314453125t-0.1845703125,0.2734375q-0.423828125,0.724609375-0.9228515625,1.380859375t-1.1279296875,1.189453125t-1.3740234375,0.8408203125t-1.6474609375,0.3076171875q-1.17578125,0-1.955078125-0.4169921875t-1.2578125-1.12109375t-0.6904296875-1.626953125t-0.2119140625-1.9345703125z M70.48525390625,108.421875l0.3828125,0.341796875q0.2734375,0.24609375,0.546875,0.109375t0.4921875-0.4990234375t0.4033203125-0.8955078125t0.328125-1.09375t0.2119140625-1.09375t0.068359375-0.888671875l0-0.46484375t-0.041015625-0.4921875t-0.1435546875-0.3896484375t-0.3212890625-0.1982421875q-0.068359375-0.013671875-0.123046875-0.013671875q-0.46484375,0-0.79296875,0.587890625q-0.35546875,0.65625-0.57421875,1.5927734375t-0.314453125,1.9208984375t-0.123046875,1.4765625z M79.4631640625,105.8515625q0-0.396484375,0.2255859375-0.51953125t0.5673828125-0.123046875q0.560546875,0,0.8544921875,0.2119140625t0.2939453125,0.7451171875q0,0.642578125,0.095703125,1.6064453125t0.2802734375,1.873046875t0.4375,1.5654296875t0.5263671875,0.65625q0.505859375,0,0.8955078125-0.779296875t0.68359375-1.9140625t0.505859375-2.4404296875t0.2939453125-2.3310546875q0.0546875-0.560546875,0.2666015625-0.8134765625t0.7724609375-0.2529296875q0.642578125,0,0.9365234375,0.533203125t0.3759765625,1.3125q0.068359375,0.669921875,0.068359375,1.39453125l0,0.232421875l0,0.546875q0,0.51953125,0.013671875,0.9296875l0.396484375,8.380859375l0.0546875,1.39453125q0.02734375,0.19140625,0.041015625,0.3623046875t0.013671875,0.3623046875q0,0.779296875-0.3349609375,1.0048828125t-1.0869140625,0.2255859375q-0.1640625,0-0.4169921875-0.02734375t-0.4921875-0.109375t-0.41015625-0.2255859375t-0.1708984375-0.3623046875l0.0546875-0.13671875q0.068359375-0.8203125,0.068359375-1.72265625l0-0.287109375q-0.013671875-1.06640625-0.068359375-2.16015625t-0.123046875-2.1875t-0.068359375-2.10546875q-0.19140625,0.423828125-0.4443359375,0.875t-0.587890625,0.8134765625t-0.7587890625,0.6015625t-0.95703125,0.2392578125q-0.779296875,0-1.28515625-0.41015625t-0.7861328125-1.06640625t-0.4033203125-1.4697265625t-0.1640625-1.626953125t-0.0546875-1.5517578125t-0.109375-1.244140625z"/><path fill="#" d="M95.02701171875,94.544921875q0-0.19140625,0.2666015625-0.2939453125t0.3486328125-0.1025390625l0.505859375-0.08203125q0.505859375-0.08203125,1.025390625-0.1435546875t1.01171875-0.1162109375q1.736328125-0.21875,3.47265625-0.4306640625t3.5-0.2119140625q0.13671875,0,0.3759765625,0.013671875t0.478515625,0.0751953125t0.41015625,0.1708984375t0.1708984375,0.30078125q0,0.13671875-0.1298828125,0.2392578125t-0.3076171875,0.1572265625t-0.3623046875,0.068359375t-0.2939453125,0.013671875l-0.2392578125,0t-0.2392578125-0.0546875q-0.724609375,0-1.4287109375,0.068359375t-1.4287109375,0.123046875q0.19140625,0.21875,0.205078125,0.615234375t0.02734375,0.68359375q0,4.83984375,0.068359375,9.625t0.123046875,9.666015625l0,0.02734375q-0.451171875,0.396484375-0.7724609375,0.505859375t-0.6494140625,0.109375q-0.314453125,0-0.6357421875-0.1162109375t-0.7724609375-0.4990234375l0-0.02734375l0.109375-10.732421875q0-1.06640625-0.02734375-2.3515625t-0.02734375-2.6044921875t0.041015625-2.5498046875t0.21875-2.146484375q-0.806640625,0.08203125-1.708984375,0.24609375q-0.779296875,0.13671875-1.490234375,0.13671875l-0.24609375,0q-0.0546875,0-0.3212890625,0.013671875t-0.546875-0.013671875t-0.505859375-0.109375t-0.2255859375-0.2734375z M108.543984375,109.4609375q0-0.95703125,0.2119140625-2.255859375t0.7177734375-2.4609375t1.3330078125-1.9755859375t2.0849609375-0.8134765625q1.17578125,0,1.763671875,0.6767578125t0.587890625,1.8251953125q0,0.751953125-0.2802734375,1.6474609375t-0.7998046875,1.6953125t-1.23046875,1.3330078125t-1.5859375,0.533203125l-0.35546875-0.02734375q0,0.369140625,0.109375,0.9912109375t0.3212890625,1.2373046875t0.546875,1.080078125t0.8134765625,0.46484375q0.697265625,0,1.33984375-0.560546875t1.216796875-1.244140625t1.06640625-1.244140625t0.90234375-0.560546875q0.21875,0,0.451171875,0.068359375t0.259765625,0.3828125q0,0.19140625-0.1025390625,0.314453125t-0.1845703125,0.2734375q-0.423828125,0.724609375-0.9228515625,1.380859375t-1.1279296875,1.189453125t-1.3740234375,0.8408203125t-1.6474609375,0.3076171875q-1.17578125,0-1.955078125-0.4169921875t-1.2578125-1.12109375t-0.6904296875-1.626953125t-0.2119140625-1.9345703125z M110.99125,108.421875l0.3828125,0.341796875q0.2734375,0.24609375,0.546875,0.109375t0.4921875-0.4990234375t0.4033203125-0.8955078125t0.328125-1.09375t0.2119140625-1.09375t0.068359375-0.888671875l0-0.46484375t-0.041015625-0.4921875t-0.1435546875-0.3896484375t-0.3212890625-0.1982421875q-0.068359375-0.013671875-0.123046875-0.013671875q-0.46484375,0-0.79296875,0.587890625q-0.35546875,0.65625-0.57421875,1.5927734375t-0.314453125,1.9208984375t-0.123046875,1.4765625z M119.69572265625,109.16015625q0-0.779296875,0.1982421875-1.6064453125t0.62890625-1.490234375t1.0869140625-1.080078125t1.5859375-0.4169921875q0.697265625,0,1.4697265625,0.2392578125t1.4150390625,0.68359375t1.0458984375,1.0869140625t0.4033203125,1.435546875q0,0.95703125-0.3486328125,1.818359375t-0.9775390625,1.5380859375t-1.4697265625,1.06640625t-1.8251953125,0.3896484375q-0.806640625,0-1.408203125-0.2939453125t-1.0048828125-0.7861328125t-0.6015625-1.162109375t-0.1982421875-1.421875z M121.70548828125,109.1328125q0,0.24609375,0.0751953125,0.724609375t0.2255859375,0.9365234375t0.3896484375,0.79296875t0.5810546875,0.3076171875q0.724609375-0.08203125,1.1962890625-0.4716796875t0.765625-0.9501953125t0.41015625-1.216796875t0.1162109375-1.244140625q0-0.751953125-0.2939453125-1.2578125t-0.9638671875-0.8203125q0,0.02734375,0.02734375,0.02734375t0.02734375-0.02734375l-0.341796875-0.08203125q-0.13671875-0.0546875-0.3349609375-0.123046875t-0.3896484375-0.30078125q-0.533203125,0.19140625-0.8271484375,0.4921875t-0.4443359375,0.7314453125t-0.1845703125,1.0322265625t-0.0341796875,1.44921875z M130.0544921875,110.390625l0-1.28515625q0-0.697265625,0.0341796875-1.9755859375t0.0888671875-2.802734375t0.150390625-3.1787109375t0.21875-3.1240234375t0.2939453125-2.6318359375t0.3896484375-1.72265625q0.13671875-0.314453125,0.451171875-0.396484375t0.615234375-0.08203125q0.478515625,0,0.8408203125,0.2119140625t0.3623046875,0.7724609375l-0.24609375,0.2734375q-0.478515625,3.158203125-0.615234375,6.34375t-0.19140625,6.37109375q0.341796875-0.533203125,0.7724609375-1.0458984375t0.95703125-0.9091796875t1.134765625-0.6357421875t1.3330078125-0.2392578125q0.9296875,0,1.5380859375,0.560546875t1.0048828125,1.4560546875t0.587890625,2.0029296875t0.2939453125,2.21484375t0.1435546875,2.0986328125t0.123046875,1.6474609375q-0.259765625,0.35546875-0.765625,0.35546875l-0.041015625,0q-0.21875,0-0.478515625-0.0546875t-0.341796875-0.2734375l0.02734375,0.02734375q-0.19140625-0.423828125-0.259765625-1.2236328125t-0.109375-1.763671875t-0.1435546875-1.9755859375t-0.3076171875-1.83203125t-0.6015625-1.353515625t-1.06640625-0.560546875l-0.08203125,0q-0.806640625,0-1.353515625,0.4921875q-0.57421875,0.51953125-0.9296875,1.3671875t-0.546875,1.88671875t-0.2939453125,2.0029296875t-0.1572265625,1.75t-0.13671875,1.1552734375q-0.08203125,0.314453125-0.4853515625,0.4169921875t-0.6904296875,0.1025390625q-0.669921875,0-1.09375-0.3828125q-0.314453125-0.751953125-0.369140625-1.873046875t-0.0546875-2.1875z"/></svg>
